<svg width="59" height="73" viewBox="0 0 59 73" fill="none" xmlns="http://www.w3.org/2000/svg">
<path d="M39.0572 3.81232C39.0346 2.36306 37.8533 1.20001 36.4039 1.20001H24.6322C19.912 1.20001 16.0854 5.02657 16.0854 9.74695V15.3951C16.0855 15.7998 16.2114 16.1946 16.4459 16.5245C16.6804 16.8545 17.0118 17.1032 17.394 17.2364L19.4993 17.9694C20.2351 18.2256 21.0036 17.6785 21.0024 16.8993L20.9977 12.9166C20.9976 12.8525 20.999 12.789 21.0021 12.7258C21.12 10.3064 24.1605 9.30308 25.7754 11.1083C27.7169 13.2786 31.7041 16.5852 37.1807 15.2618C37.8031 15.1115 38.4477 15.401 38.7334 15.9739L38.7341 15.9749C39.3027 17.1153 40.63 17.6555 41.8332 17.2364C42.2154 17.1032 42.5467 16.8545 42.7812 16.5246C43.0156 16.1946 43.1416 15.7999 43.1416 15.3952V7.93988C43.1416 6.51645 42 5.35589 40.5766 5.33286C40.1755 5.32632 39.7926 5.16399 39.509 4.88021C39.2255 4.59642 39.0634 4.21345 39.0572 3.81232Z" stroke="white" stroke-width="2.4" stroke-miterlimit="10" stroke-linecap="round" stroke-linejoin="round"/>
<path d="M16.2722 16.2241C15.6478 16.7418 15.2501 17.5232 15.2507 18.3977L15.2526 20.9544C15.2538 22.5113 16.5165 23.7725 18.0733 23.7717L18.7973 23.7714C18.8703 26.6511 20.0776 29.418 22.2454 31.2913C23.9908 32.7996 26.4406 34.112 29.6699 34.1348C32.8988 34.0845 35.3376 32.7512 37.0703 31.2281C39.2225 29.3363 40.4066 26.5591 40.4558 23.679L41.1972 23.6759C42.28 23.6712 43.154 22.7791 43.1495 21.6831L43.1403 17.4563C43.1388 17.0918 43.0372 16.7348 42.8468 16.4241" stroke="white" stroke-width="2.4" stroke-miterlimit="10" stroke-linecap="round" stroke-linejoin="round"/>
<path d="M54.6997 70.9404H3.70037C2.31943 70.9404 1.19995 69.821 1.19995 68.4402C1.19995 67.0594 2.31943 65.9398 3.70037 65.9398H54.6997C56.0806 65.9398 57.2 67.0592 57.2 68.44C57.2 69.8208 56.0806 70.9404 54.6997 70.9404Z" stroke="white" stroke-width="2.4" stroke-miterlimit="10" stroke-linecap="round" stroke-linejoin="round"/>
<path d="M7.15869 60.5396V65.9399" stroke="white" stroke-width="2.4" stroke-miterlimit="10" stroke-linecap="round" stroke-linejoin="round"/>
<path d="M51.2415 65.9399V40.8655C51.2415 39.2729 49.9505 37.9819 48.3579 37.9819H10.0423C8.44968 37.9819 7.15869 39.2729 7.15869 40.8655V55.0814" stroke="white" stroke-width="2.4" stroke-miterlimit="10" stroke-linecap="round" stroke-linejoin="round"/>
<path d="M37.0084 37.9814C35.5981 37.1402 34.6797 35.6054 34.6797 33.8872V32.8753" stroke="white" stroke-width="2.4" stroke-miterlimit="10" stroke-linecap="round" stroke-linejoin="round"/>
<path d="M23.7207 32.3891V33.8872C23.7207 35.6054 22.8022 37.1401 21.3918 37.9814" stroke="white" stroke-width="2.4" stroke-miterlimit="10" stroke-linecap="round" stroke-linejoin="round"/>
<path d="M55.317 66.0195C55.32 65.9593 55.3217 65.8986 55.3217 65.8378V56.9294C55.3217 52.6044 53.8079 48.5798 51.2415 45.4113" stroke="white" stroke-width="2.4" stroke-miterlimit="10" stroke-linecap="round" stroke-linejoin="round"/>
<path d="M7.15871 45.4113C4.59231 48.5798 3.07861 52.6044 3.07861 56.9294V65.8378C3.07861 65.8986 3.08033 65.9593 3.08313 66.0195" stroke="white" stroke-width="2.4" stroke-miterlimit="10" stroke-linecap="round" stroke-linejoin="round"/>
<path d="M34.084 52.9264C34.084 55.6236 31.8975 57.8101 29.2002 57.8101C26.5031 57.8101 24.3164 55.6236 24.3164 52.9264C24.3164 50.2291 26.5031 48.0426 29.2002 48.0426C31.8975 48.0426 34.084 50.2291 34.084 52.9264Z" stroke="white" stroke-width="2.4" stroke-miterlimit="10" stroke-linecap="round" stroke-linejoin="round"/>
</svg>
