<svg width="56" height="78" viewBox="0 0 56 78" fill="none" xmlns="http://www.w3.org/2000/svg">
<path d="M30.8748 63.6774C31.3907 63.1647 32.2268 63.1647 32.7429 63.6774C33.2586 64.1902 33.2586 65.0217 32.7429 65.5346L27.5076 70.7396C27.2495 70.9957 26.9117 71.124 26.5736 71.124C26.4001 71.1242 26.2283 71.0904 26.068 71.0244C25.9077 70.9584 25.7622 70.8615 25.6397 70.7394L23.2359 68.3495C22.7201 67.8367 22.7201 67.0053 23.2359 66.4924C23.7517 65.9798 24.5877 65.9798 25.1038 66.4924L26.5737 67.9538L30.8748 63.6774Z" fill="white"/>
<path fill-rule="evenodd" clip-rule="evenodd" d="M28 56.4646C33.9718 56.4646 38.8302 61.295 38.8302 67.2323C38.8302 73.1696 33.9718 78 28 78C22.0282 78 17.1698 73.1696 17.1698 67.2323C17.1698 61.295 22.0282 56.4646 28 56.4646ZM28 59.0909C23.4847 59.0909 19.8113 62.7431 19.8113 67.2323C19.8113 71.7215 23.4847 75.3737 28 75.3737C32.5153 75.3737 36.1887 71.7215 36.1887 67.2323C36.1887 62.7431 32.5153 59.0909 28 59.0909Z" fill="white"/>
<path d="M52.0377 0C54.2225 0 56 1.76721 56 3.93939V63.2929C56 65.4651 54.2225 67.2323 52.0377 67.2323H42.4843C41.755 67.2323 41.1636 66.6443 41.1636 65.9192C41.1636 65.1941 41.755 64.6061 42.4843 64.6061H52.0377C52.766 64.6061 53.3585 64.017 53.3585 63.2929V3.93939C53.3585 3.21533 52.766 2.62626 52.0377 2.62626H3.96226C3.234 2.62626 2.64151 3.21533 2.64151 3.93939V63.2929C2.64151 64.017 3.234 64.6061 3.96226 64.6061H13.5157C14.245 64.6061 14.8364 65.1941 14.8364 65.9192C14.8364 66.6443 14.245 67.2323 13.5157 67.2323H3.96226C1.77747 67.2323 0 65.4651 0 63.2929V3.93939C0 1.76721 1.77747 0 3.96226 0H52.0377Z" fill="white"/>
<path d="M40.1982 52.2629C40.9274 52.2629 41.5189 52.8509 41.5189 53.576C41.5189 54.3011 40.9276 54.8891 40.1982 54.8891H21.4434C20.7141 54.8891 20.1227 54.3011 20.1227 53.576C20.1227 52.8509 20.7141 52.2629 21.4434 52.2629H40.1982Z" fill="white"/>
<path d="M15.8015 52.2626C16.1516 52.2635 16.4872 52.4017 16.7353 52.6473C16.9823 52.8916 17.1222 53.2304 17.1222 53.5758C17.1219 53.9239 16.9828 54.2578 16.7353 54.5041C16.4896 54.7484 16.1488 54.8889 15.8015 54.8889C15.4541 54.8889 15.1134 54.7484 14.8678 54.5041C14.6208 54.2574 14.4817 53.9238 14.4807 53.5758C14.4807 53.2304 14.6221 52.8916 14.8678 52.6473C15.1134 52.4031 15.4541 52.2626 15.8015 52.2626Z" fill="white"/>
<path d="M40.1982 44.9093C40.9274 44.9094 41.5189 45.4974 41.5189 46.2225C41.5189 46.9476 40.9276 47.5356 40.1982 47.5356H21.4434C20.7141 47.5356 20.1227 46.9476 20.1227 46.2225C20.1227 45.4974 20.7141 44.9093 21.4434 44.9093H40.1982Z" fill="white"/>
<path d="M15.8015 44.9091C16.1488 44.9091 16.4896 45.0494 16.7353 45.2938C16.9823 45.538 17.1222 45.8769 17.1222 46.2222C17.1222 46.5676 16.9823 46.9064 16.7353 47.1505C16.4896 47.3949 16.1488 47.5354 15.8015 47.5354C15.4541 47.5353 15.1134 47.3949 14.8678 47.1505C14.6208 46.9039 14.4817 46.5702 14.4807 46.2222C14.4807 45.8769 14.6221 45.538 14.8678 45.2938C15.1134 45.0496 15.4541 44.9091 15.8015 44.9091Z" fill="white"/>
<path fill-rule="evenodd" clip-rule="evenodd" d="M28 5.25253C28.0675 5.25253 28.135 5.25291 28.2025 5.25368C28.2242 5.25392 28.2458 5.25438 28.2675 5.25471C28.3169 5.25545 28.3663 5.25637 28.4157 5.25753C28.4348 5.25797 28.454 5.2583 28.4731 5.25881C28.5228 5.26013 28.5726 5.26182 28.6223 5.26355C28.6595 5.26485 28.6967 5.26626 28.7339 5.26779C28.7827 5.26979 28.8314 5.27192 28.8802 5.27433C28.9018 5.27539 28.9233 5.27652 28.9449 5.27766C28.9891 5.28 29.0333 5.28256 29.0775 5.28523C29.1018 5.2867 29.1262 5.28814 29.1505 5.28971C29.2811 5.29813 29.4116 5.30795 29.5418 5.31921C29.5655 5.32127 29.5892 5.32347 29.6129 5.32562C29.665 5.33034 29.7171 5.33532 29.7692 5.34049C29.7816 5.34173 29.794 5.34282 29.8064 5.34409C30.1006 5.37394 30.3936 5.41097 30.6843 5.45527C30.6994 5.45757 30.7143 5.46043 30.7292 5.46322C39.1238 6.77067 45.566 14.0101 45.566 22.7174C45.566 23.6919 45.4852 24.648 45.3301 25.5795C45.3281 25.5948 45.3263 25.6101 45.3237 25.6254C44.6445 29.6515 42.5423 33.3366 39.404 36.0019C37.9833 37.2085 36.387 38.1723 34.6821 38.8691C32.8542 39.6193 30.8723 40.0713 28.7977 40.164C28.7865 40.1645 28.7752 40.165 28.7639 40.1655C28.7153 40.1676 28.6667 40.1695 28.6179 40.1712C28.587 40.1723 28.556 40.1732 28.5249 40.1741C28.4899 40.1752 28.4549 40.1761 28.4198 40.1769C28.3756 40.178 28.3314 40.1788 28.2871 40.1795C28.2627 40.1799 28.2383 40.1805 28.2139 40.1808C28.1427 40.1817 28.0714 40.1822 28.0001 40.1822L28 40.1821L27.9999 40.1822C27.9286 40.1822 27.8573 40.1817 27.786 40.1808C27.7616 40.1805 27.7372 40.1799 27.7128 40.1795C27.6685 40.1788 27.6243 40.178 27.58 40.1769C27.545 40.1761 27.5099 40.1752 27.4749 40.1741C27.4439 40.1732 27.4129 40.1723 27.3819 40.1712C27.3332 40.1695 27.2845 40.1676 27.2359 40.1655C27.2247 40.165 27.2134 40.1645 27.2021 40.164C25.1276 40.0713 23.1457 39.6193 21.3178 38.8691C19.613 38.1723 18.0167 37.2085 16.596 36.0019C13.4577 33.3366 11.3555 29.6515 10.6763 25.6254C10.6737 25.6101 10.6718 25.5948 10.6697 25.5795C10.5146 24.648 10.434 23.6919 10.434 22.7174C10.434 14.0101 16.8762 6.77072 25.2707 5.46322C25.2856 5.46042 25.3005 5.45757 25.3157 5.45527C25.6063 5.41098 25.8993 5.37394 26.1935 5.34409C26.2059 5.34282 26.2183 5.34173 26.2307 5.34049C26.2827 5.33532 26.3348 5.33034 26.387 5.32562C26.4107 5.32347 26.4343 5.32127 26.458 5.31921C26.5883 5.30794 26.7188 5.29813 26.8494 5.28971C26.8737 5.28814 26.898 5.2867 26.9224 5.28523C26.9666 5.28256 27.0108 5.28 27.055 5.27766C27.0765 5.27652 27.0981 5.27539 27.1197 5.27433C27.1685 5.27192 27.2172 5.26979 27.266 5.26779C27.3031 5.26626 27.3403 5.26485 27.3775 5.26355C27.4273 5.26182 27.477 5.26013 27.5268 5.25881C27.5459 5.2583 27.565 5.25797 27.5842 5.25753C27.6336 5.25637 27.683 5.25545 27.7324 5.25471C27.754 5.25438 27.7757 5.25392 27.7974 5.25368C27.8649 5.25291 27.9325 5.25253 28 5.25253ZM28 28.3638C27.9294 28.3638 27.859 28.3646 27.7887 28.3659C27.6474 28.3687 27.5067 28.3743 27.3666 28.3825C27.2232 28.3908 27.0806 28.402 26.9386 28.416C26.8174 28.4279 26.6967 28.4418 26.5766 28.4578C26.4985 28.4681 26.4207 28.4791 26.3431 28.4911C26.2219 28.5099 26.1012 28.5308 25.9812 28.5537C25.9432 28.5609 25.9052 28.5685 25.8673 28.5761C25.5321 28.6438 25.202 28.7268 24.8782 28.8254C24.7772 28.8561 24.677 28.8887 24.5773 28.9224C24.5631 28.9271 24.5488 28.9316 24.5347 28.9365C24.4341 28.9709 24.3343 29.0071 24.2351 29.0444C24.1062 29.0929 23.9784 29.1435 23.8519 29.1969C23.6475 29.2831 23.4463 29.3759 23.2484 29.4745C23.2314 29.483 23.2143 29.4913 23.1974 29.4998C22.7761 29.7127 22.3704 29.9536 21.9827 30.2205C21.9752 30.2256 21.9676 30.2307 21.9601 30.2359C21.3265 30.6745 20.7416 31.1832 20.2164 31.7541C20.2095 31.7616 20.2024 31.7691 20.1954 31.7768C19.5442 32.489 18.9859 33.2975 18.5423 34.1873C21.0757 36.256 24.3038 37.5132 27.8206 37.5547C27.8803 37.5554 27.9401 37.5558 28 37.5558C28.0598 37.5558 28.1196 37.5554 28.1793 37.5547C31.6961 37.5133 34.9243 36.256 37.4577 34.1873C36.0419 31.3472 33.4578 29.3367 30.4123 28.6361C30.3195 28.6148 30.2262 28.595 30.1326 28.5761C30.0947 28.5685 30.0567 28.5609 30.0187 28.5537C29.9226 28.5354 29.8261 28.5183 29.7292 28.5026C29.6277 28.4862 29.5257 28.4713 29.4233 28.4578C29.3032 28.4418 29.1825 28.4279 29.0612 28.416C28.9193 28.402 28.7766 28.3908 28.6333 28.3825C28.4932 28.3743 28.3525 28.3687 28.2111 28.3659C28.2041 28.3658 28.197 28.3656 28.19 28.3654L28 28.3638ZM27.8304 7.87969C27.7546 7.88052 27.6789 7.88195 27.6031 7.88392C27.4822 7.88707 27.3617 7.89176 27.2415 7.89777C27.1732 7.90117 27.105 7.90498 27.0368 7.90931C19.2544 8.40453 13.0753 14.857 13.0753 22.7173C13.0753 26.3506 14.3963 29.6822 16.5849 32.2647C17.2493 31.1289 18.0806 30.1003 19.0555 29.2086C19.0774 29.1885 19.0995 29.1686 19.1215 29.1487C19.2791 29.0065 19.4403 28.8677 19.6052 28.7327C19.6905 28.6628 19.777 28.5941 19.8642 28.5262C20.0139 28.4098 20.1663 28.2961 20.3216 28.1856C20.3748 28.1478 20.4283 28.1102 20.4821 28.0731C20.5982 27.993 20.7155 27.9148 20.834 27.8385C20.9525 27.7622 21.0721 27.6879 21.193 27.6155C21.2534 27.5793 21.314 27.5435 21.3749 27.5083C21.4969 27.4379 21.62 27.3695 21.7441 27.303C21.8061 27.2698 21.8684 27.2369 21.931 27.2046C22.0562 27.1401 22.1824 27.0778 22.3097 27.0173C22.564 26.8964 22.8224 26.7835 23.0843 26.679C23.2153 26.6267 23.3473 26.5766 23.48 26.5285C23.4049 26.4554 23.3314 26.3805 23.2599 26.3039C23.1883 26.2273 23.1185 26.149 23.0507 26.069C22.1014 24.9493 21.5283 23.505 21.5283 21.9296V20.6492C21.5283 17.1012 24.4315 14.2148 28 14.2148C28.0279 14.2148 28.0558 14.2149 28.0836 14.2153C31.447 14.2578 34.2001 16.8641 34.4527 20.1549C34.4569 20.2093 34.4605 20.2639 34.4633 20.3187C34.4675 20.4008 34.4701 20.4834 34.4712 20.5663C34.4715 20.5939 34.4717 20.6215 34.4717 20.6492V21.9296C34.4717 21.9577 34.4715 21.9858 34.4712 22.0138C34.4686 22.2101 34.4571 22.4044 34.4371 22.5961C34.4314 22.6509 34.4251 22.7055 34.418 22.7599C34.3897 22.9774 34.3503 23.1915 34.3005 23.4017C34.2011 23.822 34.0601 24.2266 33.882 24.6108C33.8375 24.7069 33.7906 24.8017 33.7415 24.8951C33.6434 25.082 33.5363 25.2636 33.4208 25.4392C33.2764 25.6588 33.1188 25.8691 32.9493 26.069C32.8815 26.149 32.8117 26.2273 32.7401 26.3039C32.6686 26.3805 32.5951 26.4554 32.52 26.5285C33.5818 26.9132 34.5895 27.4323 35.5179 28.0731C35.5717 28.1102 35.6252 28.1478 35.6784 28.1856C35.7996 28.2719 35.919 28.3603 36.0369 28.4502C36.0565 28.4652 36.0762 28.48 36.0957 28.4951C36.1091 28.5054 36.1224 28.5158 36.1358 28.5262C36.223 28.5941 36.3095 28.6628 36.3948 28.7327C36.5597 28.8677 36.7208 29.0065 36.8783 29.1487C36.9004 29.1686 36.9226 29.1885 36.9445 29.2086C37.9194 30.1002 38.7506 31.1289 39.415 32.2647C41.6036 29.6822 42.9247 26.3506 42.9247 22.7173C42.9247 14.5916 36.3212 7.97033 28.1695 7.87969C28.113 7.87906 28.0565 7.87878 28 7.87879C27.9434 7.87879 27.8869 7.87906 27.8304 7.87969ZM27.9013 16.8422C26.6221 16.8745 25.4967 17.5336 24.8249 18.5214C24.7904 18.5721 24.7571 18.6236 24.7251 18.676C24.3888 19.2256 24.1886 19.8661 24.1711 20.551C24.1703 20.5836 24.1698 20.6163 24.1698 20.6491V21.9294C24.1698 21.9622 24.1703 21.9949 24.1711 22.0275C24.1886 22.7124 24.3888 23.3529 24.7251 23.9026C24.7571 23.9549 24.7904 24.0064 24.8249 24.0571C25.3417 24.8169 26.1269 25.3822 27.044 25.6173C27.1051 25.633 27.1668 25.6473 27.2291 25.66C27.4782 25.7109 27.736 25.7375 28 25.7375C28.033 25.7375 28.0659 25.737 28.0987 25.7362C30.1651 25.684 31.8302 23.9963 31.8302 21.9294V20.6491C31.8302 18.5821 30.1651 16.8944 28.0987 16.8422C28.0659 16.8414 28.033 16.8409 28 16.8409C27.967 16.8409 27.9341 16.8414 27.9013 16.8422Z" fill="white"/>
</svg>
