<svg width="45" height="81" viewBox="0 0 45 81" fill="none" xmlns="http://www.w3.org/2000/svg">
<path d="M11.3 11.7167L11.3 2.09922C11.3 0.896437 12.3501 1.86145e-06 13.4966 1.81133e-06L31.1035 1.04171e-06C32.25 9.91596e-07 33.3 0.896436 33.3 2.09922L33.3 11.7167C33.3 12.9289 32.25 13.8163 31.1035 13.8163L25.4364 13.8163L23.7405 17.2163C23.2201 18.2612 21.6884 18.2612 21.1679 17.2163C20.5996 16.0827 20.0407 14.9495 19.472 13.8163L13.4966 13.8163C12.3501 13.8166 11.3 12.9292 11.3 11.7167ZM12.6584 2.09922L12.6584 11.7167C12.6584 12.16 13.1017 12.4264 13.4966 12.4264L19.8868 12.4264C20.1274 12.4264 20.3684 12.5641 20.484 12.8106C21.12 14.0725 21.756 15.324 22.3821 16.5855C22.4206 16.6544 22.5072 16.6349 22.5266 16.5855L24.3959 12.8694C24.4441 12.7394 24.5298 12.6274 24.6416 12.5483C24.7534 12.4691 24.886 12.4265 25.022 12.4261L31.1035 12.4261C31.4984 12.4261 31.9417 12.1597 31.9417 11.7163L31.9417 2.09887C31.9417 1.65552 31.4984 1.38916 31.1035 1.38916L13.4966 1.38916C13.1017 1.38951 12.6584 1.65587 12.6584 2.09922Z" fill="white"/>
<path d="M15.9542 4.28838C15.082 4.28838 15.082 3 15.9542 3H29.6531C30.5157 3 30.5157 4.28838 29.6531 4.28838H15.9542ZM15.9542 10C15.082 10 15.082 8.7113 15.9542 8.7113H21.8419C22.7137 8.7113 22.7137 10 21.8419 10H15.9542ZM15.9542 7.13984C15.082 7.13984 15.082 5.85114 15.9542 5.85114H29.6531C30.5157 5.85114 30.5157 7.13984 29.6531 7.13984H15.9542Z" fill="white"/>
<path fill-rule="evenodd" clip-rule="evenodd" d="M22.3098 21.2119C28.4838 21.2119 32.8948 25.1435 32.8948 31.251V37.7178C32.8948 40.5923 31.8073 43.2274 29.592 45.1436L29.4485 45.2627L29.9202 48.6553L32.4026 50.7715L39.4377 53.7451C40.9559 54.4042 42.1661 55.4221 43.0071 56.6992C43.848 57.9963 44.3 59.514 44.3 61.1309V78.3809C44.3 79.1589 43.6641 79.7987 42.8645 79.7988C42.8623 79.7988 42.8598 79.7979 42.8577 79.7979C42.6461 79.9243 42.4005 79.999 42.1379 79.999H36.0042C35.7853 80.1329 35.5277 80.2118 35.2493 80.2119C34.9706 80.2119 34.7098 80.1329 34.4875 79.999H11.0042C10.7854 80.1329 10.5277 80.2118 10.2493 80.2119C9.97063 80.2119 9.70981 80.1329 9.48755 79.999H2.71802C2.65553 79.999 2.59387 79.9923 2.53345 79.9844C2.31017 80.1264 2.04465 80.2109 1.75708 80.2109C0.957383 80.2109 0.300049 79.5728 0.300049 78.7939V61.1309C0.300049 59.514 0.751336 57.9963 1.61255 56.6992C2.43323 55.4219 3.64383 54.4035 5.16138 53.7451L12.1975 50.7715L14.679 48.6562L15.1516 45.2627L15.0081 45.1436C12.7921 43.2274 11.7053 40.5923 11.7053 37.7178V31.251C11.7053 25.1436 16.1361 21.2121 22.3098 21.2119ZM6.31079 56.3203C5.34681 56.7393 4.56682 57.3975 4.03345 58.2158C3.50012 59.0341 3.19263 60.0328 3.19263 61.1299V77.1055H8.79224V69.374C8.79245 68.5961 9.44898 67.957 10.2493 67.957C11.0494 67.9572 11.6846 68.5955 11.6848 69.374V77.1055H33.7922V69.375C33.7922 68.5969 34.4488 67.957 35.2493 67.957C36.0495 67.9573 36.6848 68.5963 36.6848 69.375V77.1055H41.4075V61.1309C41.4075 60.0332 41.1209 59.035 40.5667 58.2168C40.0171 57.3797 39.2242 56.7201 38.2893 56.3213L32.5256 53.8857L30.1057 61.251C29.8799 61.9897 29.0592 62.3887 28.3 62.1689C28.1568 62.1091 28.0128 62.0491 27.8899 61.9492L23.7463 59.0146V65.0225C23.7463 65.8006 23.1105 66.4404 22.3108 66.4404C21.5111 66.4404 20.8538 65.8006 20.8538 65.0225V59.0146L16.7307 61.9688L16.3 62.168C15.9355 62.2756 15.5419 62.2401 15.2043 62.0684C14.8668 61.8966 14.6115 61.6027 14.4944 61.25L12.095 53.8848L6.31079 56.3203ZM14.6379 52.4277L16.6272 58.5352L20.176 56.0205L15.9104 51.3496L14.6379 52.4277ZM24.4436 56.0205L27.9719 58.5352L29.9622 52.4277L28.6897 51.3496L24.4436 56.0205ZM26.8215 47.3184C26.4735 47.5176 26.1039 47.6983 25.6936 47.8574C23.7866 48.5961 20.8125 48.5961 18.925 47.8574C18.5273 47.7098 18.143 47.5292 17.7766 47.3184L17.55 48.9355L22.3098 54.1445L27.0471 48.9355L26.8215 47.3184ZM20.136 31.3916C18.4128 33.3675 16.2185 33.4672 14.6184 33.168V37.7178C14.6184 39.793 15.3366 41.6498 16.9368 43.0469L17.551 43.5859C17.6328 43.6458 17.6956 43.7056 17.7571 43.7852C18.4337 44.364 19.1303 44.9232 19.9719 45.2422C21.1827 45.7013 23.4394 45.7013 24.6292 45.2422C25.47 44.9225 26.1674 44.3639 26.844 43.7852C26.9062 43.7057 26.9879 43.6457 27.0696 43.5859C27.2751 43.4064 27.4807 43.2271 27.6653 43.0469C29.2653 41.6498 30.0032 39.7929 30.0032 37.7178V34.7246C24.6904 35.702 21.6746 33.3471 20.136 31.3916ZM22.3098 24.0254C18.1871 24.0255 15.0908 26.2012 14.6594 30.293C15.7884 30.5725 17.7568 30.6522 18.8235 28.0977C19.3366 26.8999 21.0383 26.8603 21.5305 28.1973C21.5305 28.1973 23.356 33.327 30.0022 31.8506V31.251C30.0022 26.7005 26.8844 24.0254 22.3098 24.0254Z" fill="white" stroke="#07224C" stroke-width="0.6"/>
</svg>
